<svg xmlns="http://www.w3.org/2000/svg" viewBox="0 0 82 72"><defs><style>.cls-1{fill:#fff;}</style></defs><title>airplan</title><g id="圖層_2" data-name="圖層 2"><g id="Airplane"><path class="cls-1" d="M27.53,72H22.21a1.78,1.78,0,0,1-1.45-.71,1.35,1.35,0,0,1-.07-1.46L35.92,43.05,13,42,6.65,53.17a1.82,1.82,0,0,1-2.29.67L.94,52.34A1.46,1.46,0,0,1,0,50.71L3.38,36,0,21.29a1.46,1.46,0,0,1,.91-1.64l3.42-1.5a1.83,1.83,0,0,1,2.29.67L13,30l22.94-1L20.68,2.17A1.35,1.35,0,0,1,20.75.71,1.78,1.78,0,0,1,22.21,0h5.33a12.59,12.59,0,0,1,9.34,3.94l21.86,24,11.2-.58c5.81-.34,11,3.06,12,7.82a3.52,3.52,0,0,1,0,1.64c-1,4.76-6.24,8.14-12,7.82l-11.2-.58-21.86,24A12.59,12.59,0,0,1,27.53,72ZM25,69h2.56a9,9,0,0,0,6.67-2.81l22.42-24.6A1.83,1.83,0,0,1,58.05,41l12.08.63c4.13.19,7.71-2.1,8.41-5.38v-.53c-.7-3.28-4.2-5.6-8.41-5.38h0L58.05,31a1.87,1.87,0,0,1-1.43-.56L34.2,5.82A9,9,0,0,0,27.53,3H25L40.15,29.66a1.34,1.34,0,0,1-.05,1.43,1.76,1.76,0,0,1-1.39.74L12,33a1.66,1.66,0,0,1-1.61-.83L4.36,21.51l-.72.32L6.8,35.71a1.35,1.35,0,0,1,0,.59L3.64,50.17l.72.32,6.07-10.66A1.65,1.65,0,0,1,12,39l26.67,1.17a1.76,1.76,0,0,1,1.39.74,1.34,1.34,0,0,1,.05,1.43Z"/><path class="cls-1" d="M69.23,40.5a1.87,1.87,0,0,1-.76-.16,1.42,1.42,0,0,1-.76-2,4.65,4.65,0,0,0,0-4.66,1.42,1.42,0,0,1,.76-2,1.84,1.84,0,0,1,2.29.67,7.35,7.35,0,0,1,0,7.34A1.75,1.75,0,0,1,69.23,40.5Z"/></g></g></svg>